<svg width="200" height="236" viewBox="0 0 261 297" fill="none" xmlns="http://www.w3.org/2000/svg">
<rect x="87.7965" y="134.804" width="144.944" height="72.4719" transform="rotate(26.9565 87.7965 134.804)" fill="#FFAF2F"/>
<rect x="73.9353" y="162.06" width="145.113" height="11.3165" transform="rotate(26.9565 73.9353 162.06)" fill="#FFEFCB"/>
<rect width="72.8539" height="11.9606" transform="matrix(-0.469472 0.882948 0.882948 0.469472 148.598 165.236)" fill="#FFEFCB"/>
<rect x="64.8948" y="31.7454" width="144.944" height="72.4719" transform="rotate(26.9565 64.8948 31.7454)" fill="#FFAF2F"/>
<rect x="51.1368" y="58.6921" width="145.018" height="11.9606" transform="rotate(26.9565 51.1368 58.6921)" fill="#FFEFCB"/>
<rect width="72.6177" height="11.9606" transform="matrix(-0.469472 0.882948 0.882948 0.469472 127.541 63.3784)" fill="#FFEFCB"/>
<circle cx="129" cy="150.742" r="36.236" fill="white"/>
<rect x="115.121" y="139.027" width="29.4782" height="15.2191" rx="5" transform="rotate(45 115.121 139.027)" fill="#FF9900"/>
<rect width="40.5843" height="15.2191" rx="5" transform="matrix(-0.707107 0.707107 0.707107 0.707107 143.322 131.174)" fill="#FF9900"/>
<g filter="url(#filter0_d_9_33)">
<path d="M5.25504 156.069C5.25504 153.409 6.49171 150.189 8.96504 146.409C11.485 142.583 14.565 138.873 18.205 135.279C21.8917 131.639 25.6484 128.209 29.475 124.989C33.3017 121.769 36.685 119.179 39.625 117.219C42.6117 115.259 44.525 114.279 45.365 114.279C46.7184 114.279 48.0717 114.886 49.425 116.099C50.7784 117.266 51.455 118.409 51.455 119.529C51.455 120.649 48.725 124.849 43.265 132.129C37.8517 139.363 31.9017 146.479 25.415 153.479C18.9284 160.433 14.5184 163.909 12.185 163.909C10.5984 163.909 9.03504 163.046 7.49504 161.319C6.00171 159.639 5.25504 157.889 5.25504 156.069ZM60.1154 157.889L62.2854 157.049C62.9387 157.049 63.2654 157.306 63.2654 157.819C63.2654 159.033 62.262 160.176 60.2554 161.249C58.2954 162.369 56.4054 162.929 54.5854 162.929C52.812 162.929 51.4354 162.533 50.4554 161.739C49.4754 160.993 48.9854 159.826 48.9854 158.239C48.9854 156.653 49.8954 154.693 51.7154 152.359C51.9487 152.126 52.0654 151.939 52.0654 151.799C52.0654 151.613 51.972 151.519 51.7854 151.519C51.5987 151.519 51.4354 151.566 51.2954 151.659C51.1554 151.753 50.152 152.383 48.2854 153.549C43.8054 156.396 40.6087 158.379 38.6954 159.499C37.902 159.919 37.1554 160.129 36.4554 160.129C35.7554 160.129 34.9854 159.686 34.1454 158.799C33.3054 157.913 32.8854 157.026 32.8854 156.139C32.8854 154.273 35.522 150.866 40.7954 145.919C46.0687 140.926 49.6387 138.429 51.5054 138.429C52.2054 138.523 52.812 138.919 53.3254 139.619C53.8387 140.319 54.0954 141.159 54.0954 142.139C54.0954 143.073 53.7454 144.099 53.0454 145.219C52.0187 146.853 51.1787 147.996 50.5254 148.649C49.9187 149.256 49.6154 149.653 49.6154 149.839C49.6154 149.979 49.6854 150.049 49.8254 150.049C49.9654 150.049 50.152 149.979 50.3854 149.839C50.6654 149.653 52.882 148.206 57.0354 145.499C61.2354 142.746 63.592 141.229 64.1054 140.949C64.6187 140.623 65.1787 140.459 65.7854 140.459C66.392 140.459 67.1854 140.763 68.1654 141.369C69.1454 141.929 69.6354 142.699 69.6354 143.679C69.6354 144.659 68.772 146.106 67.0454 148.019C65.3654 149.933 63.662 151.776 61.9354 153.549C60.2087 155.323 59.3454 156.583 59.3454 157.329C59.3454 157.703 59.602 157.889 60.1154 157.889ZM69.095 164.049C68.255 164.049 67.4384 163.583 66.645 162.649C65.8984 161.716 65.525 160.876 65.525 160.129C65.525 159.336 66.1784 157.283 67.485 153.969C68.8384 150.656 70.565 147.413 72.665 144.239C74.8117 141.019 76.725 139.409 78.405 139.409C79.4784 139.409 80.435 139.923 81.275 140.949C82.1617 141.929 82.5817 142.746 82.535 143.399C82.535 144.053 81.835 145.569 80.435 147.949C79.0817 150.329 78.405 151.753 78.405 152.219C78.405 152.686 78.4984 152.919 78.685 152.919C78.9184 152.919 79.1984 152.779 79.525 152.499C79.8984 152.173 80.715 151.379 81.975 150.119C83.2817 148.859 84.6817 147.529 86.175 146.129C87.6684 144.729 89.2784 143.283 91.005 141.789C95.0184 138.336 97.7717 136.609 99.265 136.609C99.825 136.609 100.338 136.959 100.805 137.659C101.318 138.313 101.575 138.803 101.575 139.129C101.575 139.456 101.458 139.643 101.225 139.689C98.6584 140.156 94.785 142.559 89.605 146.899C84.845 150.913 80.8084 154.459 77.495 157.539C74.2284 160.619 72.2217 162.463 71.475 163.069C70.775 163.723 69.9817 164.049 69.095 164.049ZM102.681 147.459L106.111 147.109C107.698 147.109 108.491 147.903 108.491 149.489C108.491 150.329 107.721 151.263 106.181 152.289C104.641 153.316 103.078 154.273 101.491 155.159C99.9514 155.999 99.1814 156.653 99.1814 157.119C99.1814 157.446 99.5547 157.656 100.301 157.749C101.935 157.749 105.038 156.443 109.611 153.829C114.185 151.216 116.635 149.909 116.961 149.909C117.615 149.909 117.941 150.236 117.941 150.889C117.895 151.356 116.401 152.523 113.461 154.389C110.568 156.209 107.161 157.983 103.241 159.709C99.368 161.389 96.4047 162.229 94.3514 162.229C91.1314 162.229 89.5214 160.526 89.5214 157.119C89.5214 156.139 90.1747 155.066 91.4814 153.899C92.8347 152.733 94.1647 151.729 95.4714 150.889C96.8247 150.049 97.5014 149.536 97.5014 149.349C97.5014 149.116 97.1747 148.859 96.5214 148.579C94.5614 147.739 93.5814 146.619 93.5814 145.219C93.5814 142.606 95.7514 140.133 100.091 137.799C104.478 135.419 108.538 134.229 112.271 134.229C114.325 134.229 116.028 134.626 117.381 135.419C118.735 136.166 119.411 137.333 119.411 138.919C119.411 140.459 118.315 141.906 116.121 143.259C113.975 144.613 112.435 145.289 111.501 145.289C111.128 145.289 110.778 145.196 110.451 145.009C110.171 144.823 110.031 144.613 110.031 144.379C110.031 144.146 110.661 143.773 111.921 143.259C113.228 142.699 113.881 142.186 113.881 141.719C113.881 141.486 113.531 141.369 112.831 141.369C112.178 141.369 109.985 142.116 106.251 143.609C102.518 145.056 100.651 146.083 100.651 146.689C100.651 147.203 101.328 147.459 102.681 147.459ZM139.481 157.889L141.651 157.049C142.304 157.049 142.631 157.306 142.631 157.819C142.631 159.033 141.627 160.176 139.621 161.249C137.661 162.369 135.771 162.929 133.951 162.929C132.177 162.929 130.801 162.533 129.821 161.739C128.841 160.993 128.351 159.826 128.351 158.239C128.351 156.653 129.261 154.693 131.081 152.359C131.314 152.126 131.431 151.939 131.431 151.799C131.431 151.613 131.337 151.519 131.151 151.519C130.964 151.519 130.801 151.566 130.661 151.659C130.521 151.753 129.517 152.383 127.651 153.549C123.171 156.396 119.974 158.379 118.061 159.499C117.267 159.919 116.521 160.129 115.821 160.129C115.121 160.129 114.351 159.686 113.511 158.799C112.671 157.913 112.251 157.026 112.251 156.139C112.251 154.273 114.887 150.866 120.161 145.919C125.434 140.926 129.004 138.429 130.871 138.429C131.571 138.523 132.177 138.919 132.691 139.619C133.204 140.319 133.461 141.159 133.461 142.139C133.461 143.073 133.111 144.099 132.411 145.219C131.384 146.853 130.544 147.996 129.891 148.649C129.284 149.256 128.981 149.653 128.981 149.839C128.981 149.979 129.051 150.049 129.191 150.049C129.331 150.049 129.517 149.979 129.751 149.839C130.031 149.653 132.247 148.206 136.401 145.499C140.601 142.746 142.957 141.229 143.471 140.949C143.984 140.623 144.544 140.459 145.151 140.459C145.757 140.459 146.551 140.763 147.531 141.369C148.511 141.929 149.001 142.699 149.001 143.679C149.001 144.659 148.137 146.106 146.411 148.019C144.731 149.933 143.027 151.776 141.301 153.549C139.574 155.323 138.711 156.583 138.711 157.329C138.711 157.703 138.967 157.889 139.481 157.889ZM148.864 132.829C148.864 132.083 150.871 131.406 154.884 130.799C158.898 130.193 163.191 129.773 167.764 129.539C171.591 126.086 175.044 123.146 178.124 120.719L179.664 119.459C180.364 119.459 180.714 119.973 180.714 120.999L180.854 124.429C180.714 124.943 179.734 126.553 177.914 129.259H181.344C186.524 129.259 189.511 129.773 190.304 130.799C191.144 131.779 191.564 132.573 191.564 133.179C191.564 133.973 190.771 134.393 189.184 134.439C187.598 134.486 182.628 134.509 174.274 134.509C167.601 141.369 162.374 147.459 158.594 152.779C157.148 154.739 155.888 156.489 154.814 158.029C153.741 159.569 152.901 160.643 152.294 161.249C151.734 161.903 151.198 162.229 150.684 162.229C149.144 162.229 147.838 161.716 146.764 160.689C145.691 159.663 145.154 158.403 145.154 156.909C145.154 152.803 150.871 145.359 162.304 134.579H151.524C149.751 134.579 148.864 133.996 148.864 132.829ZM183.698 158.239C183.698 158.473 183.861 158.636 184.188 158.729C184.515 158.729 185.635 158.076 187.548 156.769C189.508 155.416 190.605 154.669 190.838 154.529C191.118 154.389 191.375 154.319 191.608 154.319C192.261 154.319 192.588 154.646 192.588 155.299C192.588 155.906 190.931 157.283 187.618 159.429C184.351 161.576 182.041 162.649 180.688 162.649C180.128 162.649 179.521 162.416 178.868 161.949C178.261 161.483 177.958 160.946 177.958 160.339C177.958 159.686 178.121 158.986 178.448 158.239C178.775 157.493 178.938 157.003 178.938 156.769C178.938 156.489 178.868 156.349 178.728 156.349C178.588 156.349 178.448 156.396 178.308 156.489C173.781 159.896 170.445 161.599 168.298 161.599C167.085 161.599 166.128 161.156 165.428 160.269C164.728 159.383 164.308 158.496 164.168 157.609L164.028 156.279C164.028 154.739 164.611 152.966 165.778 150.959C166.991 148.906 168.555 146.969 170.468 145.149C172.428 143.283 174.808 141.719 177.608 140.459C180.455 139.199 183.348 138.569 186.288 138.569C187.875 138.569 189.345 138.989 190.698 139.829C192.098 140.669 192.798 141.649 192.798 142.769C192.798 143.889 191.701 144.566 189.508 144.799C187.875 145.173 185.168 146.526 181.388 148.859C177.655 151.146 175.788 152.896 175.788 154.109C175.788 154.623 176.045 154.879 176.558 154.879C177.491 154.879 179.685 153.549 183.138 150.889C186.638 148.229 188.738 146.899 189.438 146.899C190.138 146.899 190.488 147.319 190.488 148.159C190.488 148.766 190.255 149.349 189.788 149.909C189.368 150.423 189.065 150.796 188.878 151.029C188.505 151.496 187.548 152.546 186.008 154.179C184.468 155.766 183.698 157.119 183.698 158.239ZM206.472 134.929C206.799 134.929 207.102 135.093 207.382 135.419C207.662 135.699 207.802 136.049 207.802 136.469C207.802 136.843 207.569 137.333 207.102 137.939C205.282 140.179 204.069 141.603 203.462 142.209C202.902 142.769 202.622 143.143 202.622 143.329C202.622 143.516 202.762 143.609 203.042 143.609C203.369 143.609 204.629 143.213 206.822 142.419C209.016 141.579 210.462 141.159 211.162 141.159C211.862 141.159 212.586 141.463 213.332 142.069C214.079 142.629 214.452 143.376 214.452 144.309C214.452 145.196 213.029 147.273 210.182 150.539C207.336 153.759 205.912 155.859 205.912 156.839C205.912 157.026 205.982 157.119 206.122 157.119C206.356 157.119 206.776 156.979 207.382 156.699C207.989 156.373 208.362 156.209 208.502 156.209C209.016 156.209 209.272 156.396 209.272 156.769C209.272 158.216 208.129 159.663 205.842 161.109C203.556 162.556 201.619 163.279 200.032 163.279C198.492 163.279 197.232 162.836 196.252 161.949C195.272 161.109 194.782 159.966 194.782 158.519C194.782 157.073 195.482 155.463 196.882 153.689C198.329 151.869 199.799 150.586 201.292 149.839C202.832 149.093 203.602 148.486 203.602 148.019C203.602 147.879 203.579 147.786 203.532 147.739C201.479 148.579 199.799 148.999 198.492 148.999C195.926 148.999 194.642 148.253 194.642 146.759C194.642 145.033 196.136 142.769 199.122 139.969C202.109 137.169 204.559 135.489 206.472 134.929ZM211.997 161.809C211.297 161.156 210.947 160.316 210.947 159.289C210.947 156.023 212.883 152.313 216.757 148.159C220.677 144.006 224.317 141.626 227.677 141.019C229.777 141.019 230.827 142.256 230.827 144.729C230.827 145.523 229.777 147.389 227.677 150.329C225.577 153.269 223.173 156.093 220.467 158.799C217.76 161.506 215.847 162.859 214.727 162.859C213.607 162.859 212.697 162.509 211.997 161.809ZM232.087 138.779C234.327 138.546 236.17 137.589 237.617 135.909C239.063 134.183 239.787 132.713 239.787 131.499C239.787 129.586 238.83 128.629 236.917 128.629C235.61 128.629 234.07 129.213 232.297 130.379C230.523 131.546 229.52 133.249 229.287 135.489L229.357 136.259C229.45 136.819 229.73 137.379 230.197 137.939C230.663 138.499 231.293 138.779 232.087 138.779ZM247.751 158.239C247.751 158.473 247.914 158.636 248.241 158.729C248.568 158.729 249.688 158.076 251.601 156.769C253.561 155.416 254.658 154.669 254.891 154.529C255.171 154.389 255.428 154.319 255.661 154.319C256.314 154.319 256.641 154.646 256.641 155.299C256.641 155.906 254.984 157.283 251.671 159.429C248.404 161.576 246.094 162.649 244.741 162.649C244.181 162.649 243.574 162.416 242.921 161.949C242.314 161.483 242.011 160.946 242.011 160.339C242.011 159.686 242.174 158.986 242.501 158.239C242.828 157.493 242.991 157.003 242.991 156.769C242.991 156.489 242.921 156.349 242.781 156.349C242.641 156.349 242.501 156.396 242.361 156.489C237.834 159.896 234.498 161.599 232.351 161.599C231.138 161.599 230.181 161.156 229.481 160.269C228.781 159.383 228.361 158.496 228.221 157.609L228.081 156.279C228.081 154.739 228.664 152.966 229.831 150.959C231.044 148.906 232.608 146.969 234.521 145.149C236.481 143.283 238.861 141.719 241.661 140.459C244.508 139.199 247.401 138.569 250.341 138.569C251.928 138.569 253.398 138.989 254.751 139.829C256.151 140.669 256.851 141.649 256.851 142.769C256.851 143.889 255.754 144.566 253.561 144.799C251.928 145.173 249.221 146.526 245.441 148.859C241.708 151.146 239.841 152.896 239.841 154.109C239.841 154.623 240.098 154.879 240.611 154.879C241.544 154.879 243.738 153.549 247.191 150.889C250.691 148.229 252.791 146.899 253.491 146.899C254.191 146.899 254.541 147.319 254.541 148.159C254.541 148.766 254.308 149.349 253.841 149.909C253.421 150.423 253.118 150.796 252.931 151.029C252.558 151.496 251.601 152.546 250.061 154.179C248.521 155.766 247.751 157.119 247.751 158.239Z" fill="black"/>
</g>
<defs>
<filter id="filter0_d_9_33" x="1.255" y="114.279" width="259.596" height="57.77" filterUnits="userSpaceOnUse" color-interpolation-filters="sRGB">
<feFlood flood-opacity="0" result="BackgroundImageFix"/>
<feColorMatrix in="SourceAlpha" type="matrix" values="0 0 0 0 0 0 0 0 0 0 0 0 0 0 0 0 0 0 127 0" result="hardAlpha"/>
<feOffset dy="4"/>
<feGaussianBlur stdDeviation="2"/>
<feComposite in2="hardAlpha" operator="out"/>
<feColorMatrix type="matrix" values="0 0 0 0 0 0 0 0 0 0 0 0 0 0 0 0 0 0 0.25 0"/>
<feBlend mode="normal" in2="BackgroundImageFix" result="effect1_dropShadow_9_33"/>
<feBlend mode="normal" in="SourceGraphic" in2="effect1_dropShadow_9_33" result="shape"/>
</filter>
</defs>
</svg>
